# xmcd CD database file generated by libcdaudio 0.99.6
# 
# Track frame offsets:
#       150
#       15333
#       30941
#       48214
#       65507
#       82957
#       104252
#       118757
#       134892
#       155627
#       173788
# 
# Disc length: 2616 seconds
# 
# Revision: 1
# Processed by: cddbd v1.5.2PL0 Copyright (c) Steve Scherf et al.
# Submitted via: libcdaudio 0.99.6
# 
DISCID=870a360b
DTITLE=Riva Starr - if life gives you lemons, make lemonade
DYEAR=1900
DGENRE=
TTITLE0=i was drunk
TTITLE1=china gum
TTITLE2=bulgarian chicks
TTITLE3=dance me
TTITLE4=black mama
TTITLE5=black cat, white cat
TTITLE6=once upon a time in naples
TTITLE7=maria
TTITLE8=caballeros
TTITLE9=riva's boogaloo
TTITLE10=tribute
EXTD=
EXTT0=
EXTT1=
EXTT2=
EXTT3=
EXTT4=
EXTT5=
EXTT6=
EXTT7=
EXTT8=
EXTT9=
EXTT10=
PLAYORDER=
